<svg width="204" height="154" fill="none" xmlns="http://www.w3.org/2000/svg"><path d="M46.366 61.131c-2.268 0-4.444.348-6.61.666.702-2.376 1.423-4.792 2.583-6.963 1.16-3.154 2.97-5.888 4.77-8.643 1.505-2.98 4.159-4.997 6.111-7.546 2.045-2.478 4.831-4.127 7.038-6.185 2.166-2.15 5.003-3.226 7.261-4.741 2.36-1.362 4.414-2.867 6.61-3.584l5.482-2.273 4.82-2.017L79.5 0l-6.071 1.475c-1.943.491-4.312 1.064-7.007 1.75-2.756.512-5.695 1.915-8.97 3.195-3.234 1.454-6.976 2.437-10.454 4.772-3.499 2.232-7.536 4.096-11.096 7.086-3.447 3.082-7.607 5.755-10.678 9.676-3.356 3.666-6.671 7.516-9.244 11.899-2.98 4.178-5.004 8.765-7.14 13.301-1.931 4.537-3.487 9.175-4.759 13.68C1.67 75.867.592 84.448.175 91.79c-.345 7.35-.142 13.464.285 17.888.152 2.089.437 4.116.64 5.519l.255 1.72.264-.061a46.176 46.176 0 0012.01 22.549 45.675 45.675 0 0022.106 12.622 45.456 45.456 0 0025.385-1.198 45.765 45.765 0 0020.836-14.648 46.248 46.248 0 009.863-23.582 46.359 46.359 0 00-4.152-25.244A45.976 45.976 0 0070.78 68.234a45.534 45.534 0 00-24.414-7.103zm111.867 0c-2.268 0-4.444.348-6.61.666.702-2.376 1.424-4.792 2.583-6.963 1.159-3.154 2.969-5.888 4.77-8.643 1.505-2.98 4.159-4.997 6.112-7.546 2.044-2.478 4.83-4.127 7.037-6.185 2.166-2.15 5.003-3.226 7.261-4.741 2.36-1.362 4.414-2.867 6.61-3.584l5.482-2.273 4.82-2.017L191.366 0l-6.071 1.475c-1.943.491-4.312 1.064-7.007 1.75-2.756.512-5.695 1.915-8.97 3.195-3.224 1.465-6.976 2.437-10.454 4.782-3.499 2.232-7.536 4.096-11.096 7.086-3.447 3.082-7.606 5.755-10.678 9.666-3.356 3.666-6.671 7.516-9.244 11.899-2.98 4.178-5.004 8.765-7.139 13.301-1.932 4.537-3.488 9.175-4.76 13.68-2.41 9.032-3.488 17.613-3.905 24.955-.346 7.352-.142 13.465.285 17.889.153 2.089.437 4.116.641 5.519l.254 1.72.264-.061a46.18 46.18 0 0012.01 22.549 45.68 45.68 0 0022.106 12.622 45.457 45.457 0 0025.385-1.198 45.764 45.764 0 0020.836-14.648 46.25 46.25 0 009.863-23.582 46.365 46.365 0 00-4.152-25.244 45.975 45.975 0 00-16.887-19.121 45.534 45.534 0 00-24.414-7.103z" fill="#D1D1D1"/></svg>