<svg width="434" height="374" fill="none" xmlns="http://www.w3.org/2000/svg"><path d="M337.31 242.807l9.513-9.351c-.212-13.239 7.293-29.63 21.14-43.289 20.611-20.594 47.459-27.214 59.826-14.921 12.367 12.294 5.708 38.982-15.01 59.471-13.741 13.764-30.23 21.224-43.548 21.014l-9.407 9.457c-3.7 3.467-8.985 3.992-13.213 1.366-8.878 3.152-16.911 7.039-21.562 14.605-5.602 9.246-5.602 24.166-11.521 33.097-5.92 9.036-17.758 12.083-30.231 12.083-12.472 0-27.587-1.05-38.686-16.811l26.214 4.413c6.025.84 21.88-5.569 27.693-14.5 5.919-9.036 5.919-23.851 11.521-33.203 4.968-8.195 14.376-12.083 24.206-15.445-.106-2.837.74-5.779 3.065-7.986zm-60.46-117.154c6.94 0 13.812 1.358 20.224 3.999a52.86 52.86 0 0117.146 11.388 52.507 52.507 0 0111.457 17.044 52.262 52.262 0 010 40.209 52.518 52.518 0 01-11.457 17.044 52.86 52.86 0 01-17.146 11.388 53.125 53.125 0 01-20.224 3.999c-14.017 0-27.459-5.535-37.371-15.387-9.911-9.853-15.479-23.215-15.479-37.149a52.378 52.378 0 0115.479-37.148c9.912-9.852 23.354-15.387 37.371-15.387zm0 21.014a31.806 31.806 0 00-22.422 9.232 31.427 31.427 0 00-9.288 22.289c0 8.36 3.341 16.378 9.288 22.289a31.802 31.802 0 0022.422 9.233c8.41 0 16.475-3.321 22.422-9.233a31.425 31.425 0 009.288-22.289c0-8.36-3.341-16.377-9.288-22.289a31.807 31.807 0 00-22.422-9.232z" fill="#fff"/><path d="M202.31 117.756l9.513-9.351c-.212-13.239 7.293-29.63 21.14-43.29 20.611-20.593 47.459-27.213 59.826-14.92 12.367 12.294 5.708 38.982-15.01 59.471-13.741 13.764-30.23 21.224-43.548 21.014l-9.407 9.457c-3.7 3.467-8.985 3.992-13.213 1.366-8.878 3.152-16.911 7.039-21.562 14.604-5.602 9.247-5.602 24.167-11.521 33.098-5.92 9.036-17.758 12.083-30.231 12.083-12.472 0-27.587-1.05-38.686-16.811l26.214 4.413c6.025.84 21.88-5.569 27.693-14.5 5.919-9.036 5.919-23.851 11.521-33.203 4.968-8.195 14.376-12.083 24.206-15.445-.106-2.837.74-5.779 3.065-7.986zM141.85.602A53.13 53.13 0 01162.075 4.6a52.863 52.863 0 0117.145 11.388 52.511 52.511 0 0111.457 17.044 52.264 52.264 0 014.023 20.104c0 6.9-1.367 13.731-4.023 20.105a52.511 52.511 0 01-11.457 17.044 52.862 52.862 0 01-17.145 11.388 53.134 53.134 0 01-20.225 3.999c-14.017 0-27.459-5.535-37.371-15.387C94.569 80.433 89 67.07 89 53.137a52.378 52.378 0 0115.479-37.148C114.391 6.137 127.833.602 141.85.602zm0 21.014a31.804 31.804 0 00-22.422 9.232 31.426 31.426 0 00-9.288 22.29c0 8.36 3.341 16.377 9.288 22.288a31.804 31.804 0 0022.422 9.233c8.41 0 16.475-3.321 22.422-9.233a31.426 31.426 0 009.288-22.289c0-8.36-3.341-16.377-9.288-22.289a31.806 31.806 0 00-22.422-9.232zm-28.54 268.59l9.513-9.352c-.212-13.239 7.293-29.63 21.14-43.289 20.611-20.594 47.459-27.214 59.826-14.92 12.367 12.293 5.708 38.981-15.01 59.47-13.741 13.765-30.23 21.225-43.548 21.015l-9.407 9.456c-3.7 3.467-8.985 3.993-13.213 1.366-8.878 3.152-16.911 7.04-21.562 14.605-5.602 9.246-5.602 24.166-11.522 33.097-5.919 9.037-17.757 12.084-30.23 12.084-12.472 0-27.587-1.051-38.686-16.812l26.214 4.413c6.025.841 21.88-5.569 27.693-14.5 5.92-9.036 5.92-23.851 11.521-33.202 4.968-8.196 14.376-12.084 24.206-15.446-.106-2.837.74-5.779 3.065-7.985zM52.85 173.051c6.94 0 13.812 1.359 20.224 3.999a52.874 52.874 0 0117.146 11.388 52.528 52.528 0 0111.457 17.044 52.262 52.262 0 010 40.209 52.518 52.518 0 01-11.457 17.044 52.877 52.877 0 01-17.145 11.389 53.127 53.127 0 01-20.225 3.999c-14.017 0-27.46-5.535-37.37-15.388A52.377 52.377 0 010 225.587c0-13.934 5.568-27.296 15.48-37.149 9.91-9.852 23.353-15.387 37.37-15.387zm0 21.014a31.804 31.804 0 00-22.423 9.233 31.426 31.426 0 00-9.287 22.289c0 8.36 3.34 16.377 9.287 22.289a31.808 31.808 0 0022.423 9.232c8.41 0 16.475-3.321 22.422-9.232a31.428 31.428 0 009.288-22.289c0-8.36-3.341-16.378-9.288-22.289a31.804 31.804 0 00-22.422-9.233z" fill="#fff"/></svg>